# xmcd
#
# Track frame offsets: 
#        150
#        16987
#        34720
#        52142
#        69802
#        86402
#        100762
#        118230
#        135610
#        153872
#        173372
#        193527
#        239192
#
# Disc length: 3836 seconds
#
# Revision: 4
# Processed by: cddbd v1.5.2PL0 Copyright (c) Steve Scherf et al.
# Submitted via: ExactAudioCopy v1.1
#
DISCID=a30efa0d
DTITLE=A*Teens - The Abba Generation
DYEAR=1999
DGENRE=Pop
TTITLE0=Mamma Mia
TTITLE1=Gimme! Gimme! Gimme! (A Man After Midnight)
TTITLE2=Super Trouper
TTITLE3=One Of Us
TTITLE4=Voulez-Vous
TTITLE5=S.O.S.
TTITLE6=Dancing Queen
TTITLE7=Take A Chance On Me
TTITLE8=Lay All Your Love On Me
TTITLE9=The Name Of The Game
TTITLE10=Our Last Summer
TTITLE11=A*Teens Megamix
TTITLE12=Data Track
EXTD=YEAR: 1999
EXTT0=
EXTT1=
EXTT2=
EXTT3=
EXTT4=
EXTT5=
EXTT6=
EXTT7=
EXTT8=
EXTT9=
EXTT10=
EXTT11=
EXTT12=
PLAYORDER=
